<svg width="127" height="127" viewBox="0 0 127 127" fill="none" xmlns="http://www.w3.org/2000/svg">
<circle cx="63.5" cy="63.5" r="63.5" fill="white"/>
<path d="M22.1183 85.2686L22.1086 80.787L19.8872 84.4959H19.327L17.1055 80.845V85.2686H15.9079V78.5076H16.9414L19.6264 82.9892L22.2632 78.5076H23.2966L23.3063 85.2686H22.1183ZM36.288 85.2686L34.9068 83.2886C34.8488 83.295 34.7619 83.2982 34.646 83.2982H33.12V85.2686H31.8644V78.5076H34.646C35.232 78.5076 35.7406 78.6042 36.1721 78.7974C36.6099 78.9905 36.9447 79.2674 37.1765 79.628C37.4083 79.9886 37.5242 80.4168 37.5242 80.9126C37.5242 81.4213 37.3987 81.8591 37.1476 82.2261C36.9029 82.5932 36.5487 82.8668 36.0851 83.0471L37.6401 85.2686H36.288ZM36.259 80.9126C36.259 80.4812 36.1173 80.1496 35.834 79.9178C35.5507 79.686 35.1354 79.5701 34.5881 79.5701H33.12V82.2648H34.5881C35.1354 82.2648 35.5507 82.1489 35.834 81.9171C36.1173 81.6788 36.259 81.344 36.259 80.9126ZM45.6609 78.5076H46.9165V85.2686H45.6609V78.5076ZM56.8486 79.5701H54.6078V78.5076H60.345V79.5701H58.1042V85.2686H56.8486V79.5701ZM69.485 79.5701H67.2442V78.5076H72.9813V79.5701H70.7406V85.2686H69.485V79.5701ZM80.6555 78.5076H81.9111V85.2686H80.6555V78.5076ZM92.7994 82.4386L91.7273 83.5397V85.2686H90.4717V78.5076H91.7273V81.975L95.0691 78.5076H96.4793L93.6397 81.5307L96.6531 85.2686H95.185L92.7994 82.4386Z" fill="black"/>
<g clip-path="url(#clip0_6_549)">
<path d="M109.828 50H113.34L109.828 56.1463V50Z" fill="black"/>
<path d="M22.0234 50H15.8771V70.195H22.0234V50Z" fill="black"/>
<path d="M109.828 50H19.3892V56.1463H109.828V50Z" fill="black"/>
<path d="M101.047 64.0488H20.2673V70.1951H101.047V64.0488Z" fill="black"/>
<path d="M101.925 70.1951L105.438 64.0488H99.2912L99.3175 70.1951H101.925Z" fill="black"/>
</g>
<defs>
<clipPath id="clip0_6_549">
<rect width="97.4628" height="20.195" fill="white" transform="translate(15.8779 50)"/>
</clipPath>
</defs>
</svg>
